<svg width="179" height="45" viewBox="0 0 179 45" fill="none" xmlns="http://www.w3.org/2000/svg">
<rect x="0.5" y="0.5" width="178" height="44" rx="1.5" fill="#82B284"/>
<rect x="19" y="21.5" width="14" height="2" fill="white"/>
<rect x="27" y="15.5" width="14" height="2" transform="rotate(90 27 15.5)" fill="white"/>
<path d="M46.448 28.722V26.062C46.8587 26.034 47.1853 25.936 47.428 25.768C47.6707 25.6 47.89 25.2453 48.086 24.704C48.2913 24.1627 48.4593 23.3787 48.59 22.352L49.164 17.662H54.876V25.964H55.73V28.722H54.568V27H47.61V28.722H46.448ZM49.738 22.436C49.5233 24.2373 49.0473 25.4133 48.31 25.964H53.714V18.698H50.2L49.738 22.436ZM61.4652 27.168C60.0932 27.168 58.9779 26.7107 58.1192 25.796C57.2605 24.8813 56.8312 23.7287 56.8312 22.338C56.8312 20.9473 57.2605 19.7947 58.1192 18.88C58.9779 17.9653 60.0932 17.508 61.4652 17.508C62.8279 17.508 63.9385 17.9653 64.7972 18.88C65.6652 19.7947 66.0992 20.9473 66.0992 22.338C66.0992 23.7287 65.6652 24.8813 64.7972 25.796C63.9385 26.7107 62.8279 27.168 61.4652 27.168ZM61.4652 26.132C62.4919 26.132 63.3179 25.7773 63.9432 25.068C64.5779 24.3493 64.8952 23.4393 64.8952 22.338C64.8952 21.2273 64.5779 20.3173 63.9432 19.608C63.3179 18.8987 62.4919 18.544 61.4652 18.544C60.4292 18.544 59.5985 18.8987 58.9732 19.608C58.3479 20.3173 58.0352 21.2273 58.0352 22.338C58.0352 23.4393 58.3479 24.3493 58.9732 25.068C59.5985 25.7773 60.4292 26.132 61.4652 26.132ZM67.9143 17.662H73.9763V18.698H69.0763V21.372H71.6663C72.5623 21.372 73.2716 21.6427 73.7943 22.184C74.3263 22.7253 74.5923 23.3927 74.5923 24.186C74.5923 24.9793 74.3309 25.6467 73.8083 26.188C73.2856 26.7293 72.5716 27 71.6663 27H67.9143V17.662ZM71.5263 22.408H69.0763V25.964H71.5263C72.0769 25.964 72.5249 25.8007 72.8703 25.474C73.2156 25.138 73.3883 24.7087 73.3883 24.186C73.3883 23.6633 73.2156 23.2387 72.8703 22.912C72.5249 22.576 72.0769 22.408 71.5263 22.408ZM84.1251 27H82.7951L81.9691 24.928H77.3211L76.4951 27H75.1651L78.9171 17.662H80.3591L84.1251 27ZM81.6191 23.892L79.6451 18.866L77.6571 23.892H81.6191ZM89.6019 27H85.3459V17.662H89.5039C90.3066 17.662 90.9412 17.8813 91.4079 18.32C91.8839 18.7587 92.1219 19.3327 92.1219 20.042C92.1219 20.602 91.9632 21.078 91.6459 21.47C91.3286 21.8527 90.9412 22.0907 90.4839 22.184C90.9786 22.2587 91.4032 22.52 91.7579 22.968C92.1219 23.416 92.3039 23.92 92.3039 24.48C92.3039 25.236 92.0612 25.8473 91.5759 26.314C91.0999 26.7713 90.4419 27 89.6019 27ZM89.3079 21.708C89.8212 21.708 90.2179 21.568 90.4979 21.288C90.7779 21.008 90.9179 20.6487 90.9179 20.21C90.9179 19.7713 90.7732 19.412 90.4839 19.132C90.2039 18.8427 89.8119 18.698 89.3079 18.698H86.5079V21.708H89.3079ZM89.3639 25.964C89.9052 25.964 90.3299 25.8193 90.6379 25.53C90.9459 25.2407 91.0999 24.8487 91.0999 24.354C91.0999 23.8967 90.9459 23.514 90.6379 23.206C90.3392 22.898 89.9146 22.744 89.3639 22.744H86.5079V25.964H89.3639ZM95.2706 27H94.1506V17.662H95.3126V24.956L100.689 17.662H101.879V27H100.717V19.552L95.2706 27ZM107.535 27H106.373V18.698H103.419V17.662H110.503V18.698H107.535V27ZM112.047 17.662H113.209V21.372H115.799C116.695 21.372 117.404 21.6427 117.927 22.184C118.459 22.7253 118.725 23.3927 118.725 24.186C118.725 24.9793 118.464 25.6467 117.941 26.188C117.418 26.7293 116.704 27 115.799 27H112.047V17.662ZM115.659 22.408H113.209V25.964H115.659C116.21 25.964 116.658 25.8007 117.003 25.474C117.348 25.138 117.521 24.7087 117.521 24.186C117.521 23.6633 117.348 23.2387 117.003 22.912C116.658 22.576 116.21 22.408 115.659 22.408ZM128.997 27H127.835V26.09C126.491 25.9967 125.432 25.614 124.657 24.942C123.883 24.27 123.495 23.402 123.495 22.338C123.495 21.2833 123.883 20.42 124.657 19.748C125.432 19.076 126.491 18.6933 127.835 18.6V17.662H128.997V18.6C130.332 18.6933 131.391 19.0807 132.175 19.762C132.959 20.434 133.351 21.2927 133.351 22.338C133.351 23.402 132.959 24.27 132.175 24.942C131.401 25.614 130.341 25.9967 128.997 26.09V27ZM131.307 24.186C131.867 23.7007 132.147 23.0847 132.147 22.338C132.147 21.5913 131.867 20.9753 131.307 20.49C130.747 20.0047 129.977 19.72 128.997 19.636V25.04C129.977 24.956 130.747 24.6713 131.307 24.186ZM125.525 20.49C124.975 20.9753 124.699 21.5913 124.699 22.338C124.699 23.0847 124.975 23.7007 125.525 24.186C126.085 24.6713 126.855 24.956 127.835 25.04V19.636C126.855 19.72 126.085 20.0047 125.525 20.49ZM142.627 27H141.297L140.471 24.928H135.823L134.997 27H133.667L137.419 17.662H138.861L142.627 27ZM140.121 23.892L138.147 18.866L136.159 23.892H140.121ZM144.968 27H143.848V17.662H145.01V24.956L150.386 17.662H151.576V27H150.414V19.552L144.968 27ZM150.162 15.898C149.555 16.7193 148.739 17.13 147.712 17.13C146.695 17.13 145.873 16.7193 145.248 15.898L145.766 15.45C146.251 16.122 146.9 16.458 147.712 16.458C148.533 16.458 149.177 16.122 149.644 15.45L150.162 15.898ZM153.116 27.168V26.132C153.517 26.132 153.844 26.0387 154.096 25.852C154.348 25.6653 154.572 25.2967 154.768 24.746C154.964 24.186 155.127 23.388 155.258 22.352L155.832 17.662H161.544V27H160.382V18.698H156.868L156.406 22.436C156.285 23.4347 156.121 24.256 155.916 24.9C155.72 25.544 155.473 26.0293 155.174 26.356C154.885 26.6733 154.581 26.888 154.264 27C153.956 27.112 153.573 27.168 153.116 27.168Z" fill="white"/>
<rect x="0.5" y="0.5" width="178" height="44" rx="1.5" stroke="#82B284"/>
</svg>
